<?xml version="1.0" encoding="UTF-8" standalone="no"?>
<!DOCTYPE svg PUBLIC "-//W3C//DTD SVG 1.1//EN"
 "http://www.w3.org/Graphics/SVG/1.1/DTD/svg11.dtd">
<!-- Generated by graphviz version 2.38.0 (20140413.2041)
 -->
<!-- Title: G Pages: 1 -->
<svg width="553pt" height="184pt"
 viewBox="0.00 0.00 552.97 184.00" xmlns="http://www.w3.org/2000/svg" xmlns:xlink="http://www.w3.org/1999/xlink">
<g id="graph0" class="graph" transform="scale(1 1) rotate(0) translate(4 180)">
<title>G</title>
<polygon fill="white" stroke="none" points="-4,4 -4,-180 548.966,-180 548.966,4 -4,4"/>
<g id="clust1" class="cluster"><title>cluster_Global</title>
<path fill="none" stroke="gray" d="M362.344,-8C362.344,-8 524.966,-8 524.966,-8 530.966,-8 536.966,-14 536.966,-20 536.966,-20 536.966,-156 536.966,-156 536.966,-162 530.966,-168 524.966,-168 524.966,-168 362.344,-168 362.344,-168 356.344,-168 350.344,-162 350.344,-156 350.344,-156 350.344,-20 350.344,-20 350.344,-14 356.344,-8 362.344,-8"/>
<text text-anchor="middle" x="443.655" y="-155.2" font-family="Times,serif" font-size="11.00" fill="gray">Global</text>
</g>
<g id="clust2" class="cluster"><title>cluster_\nwtn</title>
<path fill="none" stroke="gray" d="M370.344,-16C370.344,-16 516.966,-16 516.966,-16 522.966,-16 528.966,-22 528.966,-28 528.966,-28 528.966,-129 528.966,-129 528.966,-135 522.966,-141 516.966,-141 516.966,-141 370.344,-141 370.344,-141 364.344,-141 358.344,-135 358.344,-129 358.344,-129 358.344,-28 358.344,-28 358.344,-22 364.344,-16 370.344,-16"/>
<text text-anchor="middle" x="443.655" y="-128.2" font-family="Times,serif" font-size="11.00" fill="gray">nwtn</text>
</g>
<!-- \\nwtn\\Respimg -->
<g id="node1" class="node"><title>\\nwtn\\Respimg</title>
<polygon fill="none" stroke="black" points="474.863,-114 412.447,-114 412.447,-78 474.863,-78 474.863,-114"/>
<text text-anchor="middle" x="443.655" y="-92.7" font-family="Courier,monospace" font-size="11.00">Respimg</text>
</g>
<!-- \\Imagick -->
<g id="node3" class="node"><title>\\Imagick</title>
<ellipse fill="none" stroke="black" cx="147.172" cy="-96" rx="41.5766" ry="18"/>
<text text-anchor="middle" x="147.172" y="-91.8" font-family="Times,serif" font-size="14.00" fill="gray">\Imagick</text>
</g>
<!-- \\nwtn\\Respimg&#45;&gt;\\Imagick -->
<g id="edge1" class="edge"><title>\\nwtn\\Respimg&#45;&gt;\\Imagick</title>
<path fill="none" stroke="black" d="M412.524,-96C362.222,-96 260.603,-96 199.049,-96"/>
<polygon fill="none" stroke="black" points="198.786,-92.5001 188.786,-96 198.786,-99.5001 198.786,-92.5001"/>
</g>
<!-- \\nwtn\\RespimgCaptureRequest -->
<g id="node2" class="node"><title>\\nwtn\\RespimgCaptureRequest</title>
<polygon fill="none" stroke="black" points="520.778,-60 366.532,-60 366.532,-24 520.778,-24 520.778,-60"/>
<text text-anchor="middle" x="443.655" y="-38.7" font-family="Courier,monospace" font-size="11.00">RespimgCaptureRequest</text>
</g>
<!-- \\JonnyW\\PhantomJs\\Message\\Request -->
<g id="node4" class="node"><title>\\JonnyW\\PhantomJs\\Message\\Request</title>
<ellipse fill="none" stroke="black" cx="147.172" cy="-42" rx="147.344" ry="18"/>
<text text-anchor="middle" x="147.172" y="-37.8" font-family="Times,serif" font-size="14.00" fill="gray">\JonnyW\PhantomJs\Message\Request</text>
</g>
<!-- \\nwtn\\RespimgCaptureRequest&#45;&gt;\\JonnyW\\PhantomJs\\Message\\Request -->
<g id="edge2" class="edge"><title>\\nwtn\\RespimgCaptureRequest&#45;&gt;\\JonnyW\\PhantomJs\\Message\\Request</title>
<path fill="none" stroke="black" d="M366.435,-42C347.31,-42 326.082,-42 304.593,-42"/>
<polygon fill="none" stroke="black" points="304.371,-38.5001 294.37,-42 304.37,-45.5001 304.371,-38.5001"/>
</g>
</g>
</svg>
